# xmcd
#
# Track frame offsets:
#	150
#	11976
#	30185
#	46735
#	63487
#	76776
#	93055
#	107576
#	124875
#	136782
#	155477
#	168009
#	184793
#	203309
#	218658
#	235259
#
# Disc length: 3358 seconds
#
# Revision: 0
# Processed by: cddbd v1.5.2PL0 Copyright (c) Steve Scherf et al.
# Submitted via: EasyCDDAExtractor 11.1.0.1
#
DISCID=b80d1c10
DTITLE=Horsens Hardy - Livets cirkel
DYEAR=1900
DGENRE=country
TTITLE0=Livets cirkel
TTITLE1=Sommervin
TTITLE2=Den russiske bjørn
TTITLE3=Lys i lanternen
TTITLE4=Fiskerne fra Thyberøn
TTITLE5=Blue wing
TTITLE6=Dækket til to
TTITLE7=Se på verdens historie
TTITLE8=Den kvinde er min
TTITLE9=På en eng i himmelen
TTITLE10=Kan man bli' gift med en engel
TTITLE11=Lille fugl
TTITLE12=Mig og Anne Sofie
TTITLE13=Far kom hjem
TTITLE14=Zigeunerkvindens sang
TTITLE15=Far hold dig ædru juleaften
EXTD=
EXTT0=
EXTT1=
EXTT2=
EXTT3=
EXTT4=
EXTT5=
EXTT6=
EXTT7=
EXTT8=
EXTT9=
EXTT10=
EXTT11=
EXTT12=
EXTT13=
EXTT14=
EXTT15=
PLAYORDER=
